<svg width="20" height="10" viewBox="0 0 20 10" fill="none" xmlns="http://www.w3.org/2000/svg">
<path d="M9 10H5C3.61667 10 2.43733 9.51233 1.462 8.537C0.486667 7.56167 -0.000665984 6.38267 6.8306e-07 5C6.8306e-07 3.61667 0.487667 2.43733 1.463 1.462C2.43833 0.486667 3.61733 -0.000665984 5 6.8306e-07H9V2H5C4.16667 2 3.45833 2.29167 2.875 2.875C2.29167 3.45833 2 4.16667 2 5C2 5.83333 2.29167 6.54167 2.875 7.125C3.45833 7.70833 4.16667 8 5 8H9V10ZM6 6V4H14V6H6ZM11 10V8H15C15.8333 8 16.5417 7.70833 17.125 7.125C17.7083 6.54167 18 5.83333 18 5C18 4.16667 17.7083 3.45833 17.125 2.875C16.5417 2.29167 15.8333 2 15 2H11V6.8306e-07H15C16.3833 6.8306e-07 17.5627 0.487668 18.538 1.463C19.5133 2.43833 20.0007 3.61733 20 5C20 6.38333 19.5123 7.56267 18.537 8.538C17.5617 9.51333 16.3827 10.0007 15 10H11Z" fill="black"/>
</svg>
